# xmcd CD database file
# Generated: Sun Mar 14 21:01:24 2004 by KSCD
# 
# Track frame offsets:
#       300
#       19422
#       37572
#       63359
#       75659
#       100433
#       114255
#       138079
#       155125
#       172973
#       191679
#       208138
#
# Disc length: 3046 seconds
#
# Revision: 2
# Processed by: cddbd v1.5PL3 Copyright (c) Steve Scherf et al.
# Submitted via: Kscd 1.3.3
#
DISCID=9b0be20c
DTITLE=Robb Johnson - Clockwork Music
DYEAR=1900
DGENRE=
TTITLE0=Breakfast In Chemnitz
TTITLE1=The Young Man With The Girlfriend and Guitar
TTITLE2=Lucky
TTITLE3=We All Said Thank You Very Much
TTITLE4=Over The Hills
TTITLE5=Bang!
TTITLE6=Lost In The Woods
TTITLE7=My Mother Taught Me How To Waltz
TTITLE8=Black And White
TTITLE9=We All Said Stop The War
TTITLE10=The Rainbow's End
TTITLE11=Clockwork Music
EXTD=Irregular Records UK IRR048 2003\nwith:\nMiranda Sykes: Double Bass - \
EXTD=nSaskia Tomkins: Cello, Viola and Violin.
EXTT0=
EXTT1=
EXTT2=
EXTT3=
EXTT4=
EXTT5=
EXTT6=
EXTT7=
EXTT8=
EXTT9=
EXTT10=
EXTT11=
PLAYORDER=
